<svg width="326" height="80" viewBox="0 0 326 80" fill="none" xmlns="http://www.w3.org/2000/svg">
<g clip-path="url(#clip0_332_2)">
<path d="M12.8316 4.57227L0.0348216 11.7508C0.0348216 11.7508 0.356528 62.5365 0.0348216 63.5008C-0.286885 64.4651 21.2317 80.0008 21.2317 80.0008H55.4398C56.3334 80.0008 57.1913 79.9294 58.0492 79.7865C63.2322 78.8937 79.4605 74.7508 80.6401 57.7508V56.2151C80.6401 56.2151 72.0255 66.5723 59.6577 66.9294C47.2899 67.2865 13.332 68.108 13.332 68.108L12.7958 4.60798L12.8316 4.57227Z" fill="url(#paint0_radial_332_2)" stroke="black" stroke-width="0.6" stroke-miterlimit="10"/>
<path d="M23.9844 -0.0703125H51.7941C51.7941 -0.0703125 58.1567 1.10827 57.7993 7.57255C57.4418 14.0368 47.183 22.0725 47.183 22.0725V13.9654C47.183 13.9654 47.6119 9.60827 44.2519 9.50112H36.6024V48.7154H57.5133C62.5891 48.7154 66.9858 44.8225 67.236 39.7511C67.236 39.5011 67.236 39.2154 67.236 38.9297C67.236 37.1797 66.8785 35.6797 66.4138 34.394C64.9483 30.5011 61.0521 28.0368 56.9056 28.2511C52.1515 28.4654 44.4663 28.9297 40.3556 29.8583C40.3556 29.8583 55.9048 20.0011 61.6955 18.3225C67.4862 16.644 67.1288 17.6083 69.2377 18.0726C71.3467 18.5368 81.5698 20.8583 80.6762 39.0368C79.7825 57.2154 64.4121 58.1083 61.8385 58.3583C59.2291 58.6083 24.0201 58.3583 24.0201 58.3583V-0.034596L23.9844 -0.0703125Z" fill="url(#paint1_radial_332_2)" stroke="black" stroke-width="0.6" stroke-miterlimit="10"/>
<path d="M101 23H108.935V52.1429H127.988V56.3572H101V23Z" fill="url(#paint2_radial_332_2)" stroke="black" stroke-width="0.6" stroke-miterlimit="10"/>
<path d="M132.846 23H141.282V44.0357C141.282 44.0357 141.282 52.9643 148.539 52.7857C155.795 52.6071 159.834 49.25 160.013 47.0714C160.192 44.8929 160.013 23.6786 160.013 23.6786H164.731V45.3929C164.731 45.3929 164.552 56.5 149.718 56.3571C134.884 56.2143 132.346 46.9286 132.846 46.0714C133.347 45.2143 132.846 23 132.846 23Z" fill="url(#paint3_radial_332_2)" stroke="black" stroke-width="0.6" stroke-miterlimit="10"/>
<path d="M171.132 23H181.391L191.364 35.1429L202.302 23H207.521L193.223 38.5L208.879 56.3572H197.941L187.325 43.8929L177.03 56.3572H170.453L185.609 41.3572L171.132 23Z" fill="url(#paint4_radial_332_2)" stroke="black" stroke-width="0.6" stroke-miterlimit="10"/>
<path d="M287.91 23H298.204L308.141 35.1429L319.115 23H324.334L310 38.5L325.692 56.3572H314.718L304.102 43.8929L293.808 56.3572H287.23L302.422 41.3572L287.91 23Z" fill="url(#paint5_radial_332_2)" stroke="black" stroke-width="0.6" stroke-miterlimit="10"/>
<path d="M237.689 39.6786C237.689 39.6786 243.587 38.8214 244.587 32.1071C245.588 25.3571 237.009 23 237.009 23H215.098V56.3572H238.868C238.868 56.3572 246.804 55.1786 247.125 47.6072C247.447 40.0357 237.689 39.6786 237.689 39.6786ZM222.211 27.2143H233.828C233.828 27.2143 237.546 28.3929 237.188 32.9286C236.866 37.4643 234.329 37.6429 231.969 37.9643C229.61 38.2857 222.175 37.9643 222.175 37.9643V27.1786L222.211 27.2143ZM235.186 52.6429H222.211V41.3572H234.186C234.186 41.3572 239.404 42.3572 239.226 47.25C239.047 52.1429 235.186 52.6429 235.186 52.6429Z" fill="url(#paint6_radial_332_2)" stroke="black" stroke-width="0.6" stroke-miterlimit="10"/>
<path d="M269.715 23H265.319L249.305 54.5V55.3571H254.202L258.062 47.0357H272.396L276.936 56.3929C276.936 56.3929 284.692 56.2143 286.194 56.3929C287.695 56.5714 269.679 23.0357 269.679 23.0357L269.715 23ZM258.956 44.0714L265.354 31.1071L271.931 44.0714H258.956Z" fill="url(#paint7_radial_332_2)" stroke="black" stroke-width="0.6" stroke-miterlimit="10"/>
</g>
<defs>
<radialGradient id="paint0_radial_332_2" cx="0" cy="0" r="1" gradientUnits="userSpaceOnUse" gradientTransform="translate(40.3553 42.2866) scale(39.0337 39)">
<stop stop-color="#E7AC60"/>
<stop offset="0.3" stop-color="#F1BC6A"/>
<stop offset="0.6" stop-color="#FFE6A7"/>
<stop offset="0.9" stop-color="#F6CD80"/>
<stop offset="1" stop-color="#AD7A3A"/>
</radialGradient>
<radialGradient id="paint1_radial_332_2" cx="0" cy="0" r="1" gradientUnits="userSpaceOnUse" gradientTransform="translate(52.3303 29.1797) scale(28.8106 28.7857)">
<stop stop-color="#E7AC60"/>
<stop offset="0.3" stop-color="#F1BC6A"/>
<stop offset="0.6" stop-color="#FFE6A7"/>
<stop offset="0.9" stop-color="#F6CD80"/>
<stop offset="1" stop-color="#AD7A3A"/>
</radialGradient>
<radialGradient id="paint2_radial_332_2" cx="0" cy="0" r="1" gradientUnits="userSpaceOnUse" gradientTransform="translate(114.476 39.6786) scale(15.1559 15.1429)">
<stop stop-color="#E7AC60"/>
<stop offset="0.3" stop-color="#F1BC6A"/>
<stop offset="0.6" stop-color="#FFE6A7"/>
<stop offset="0.9" stop-color="#F6CD80"/>
<stop offset="1" stop-color="#AD7A3A"/>
</radialGradient>
<radialGradient id="paint3_radial_332_2" cx="0" cy="0" r="1" gradientUnits="userSpaceOnUse" gradientTransform="translate(148.753 39.6786) scale(16.3355 16.3214)">
<stop stop-color="#E7AC60"/>
<stop offset="0.3" stop-color="#F1BC6A"/>
<stop offset="0.6" stop-color="#FFE6A7"/>
<stop offset="0.9" stop-color="#F6CD80"/>
<stop offset="1" stop-color="#AD7A3A"/>
</radialGradient>
<radialGradient id="paint4_radial_332_2" cx="0" cy="0" r="1" gradientUnits="userSpaceOnUse" gradientTransform="translate(189.684 39.6786) scale(17.9798 17.9643)">
<stop stop-color="#E7AC60"/>
<stop offset="0.3" stop-color="#F1BC6A"/>
<stop offset="0.6" stop-color="#FFE6A7"/>
<stop offset="0.9" stop-color="#F6CD80"/>
<stop offset="1" stop-color="#AD7A3A"/>
</radialGradient>
<radialGradient id="paint5_radial_332_2" cx="0" cy="0" r="1" gradientUnits="userSpaceOnUse" gradientTransform="translate(306.461 39.6786) scale(17.9798 17.9643)">
<stop stop-color="#E7AC60"/>
<stop offset="0.3" stop-color="#F1BC6A"/>
<stop offset="0.6" stop-color="#FFE6A7"/>
<stop offset="0.9" stop-color="#F6CD80"/>
<stop offset="1" stop-color="#AD7A3A"/>
</radialGradient>
<radialGradient id="paint6_radial_332_2" cx="0" cy="0" r="1" gradientUnits="userSpaceOnUse" gradientTransform="translate(231.147 39.6786) scale(16.3713 16.3571)">
<stop stop-color="#E7AC60"/>
<stop offset="0.3" stop-color="#F1BC6A"/>
<stop offset="0.6" stop-color="#FFE6A7"/>
<stop offset="0.9" stop-color="#F6CD80"/>
<stop offset="1" stop-color="#AD7A3A"/>
</radialGradient>
<radialGradient id="paint7_radial_332_2" cx="0" cy="0" r="1" gradientUnits="userSpaceOnUse" gradientTransform="translate(267.856 39.6786) scale(17.6224 17.6071)">
<stop stop-color="#E7AC60"/>
<stop offset="0.3" stop-color="#F1BC6A"/>
<stop offset="0.6" stop-color="#FFE6A7"/>
<stop offset="0.9" stop-color="#F6CD80"/>
<stop offset="1" stop-color="#AD7A3A"/>
</radialGradient>
<clipPath id="clip0_332_2">
<rect width="326" height="80" fill="white"/>
</clipPath>
</defs>
</svg>
