<svg width="60" height="60" viewBox="0 0 60 60" fill="none" xmlns="http://www.w3.org/2000/svg">
<g clip-path="url(#clip0_338_16)">
<path d="M9.45881 3.51562L-0.056066 8.88114C-0.056066 8.88114 0.177344 46.8811 -0.056066 47.5846C-0.289476 48.288 15.7197 59.9432 15.7197 59.9432H41.1751C41.8341 59.9432 42.4794 59.888 43.1247 59.7777C46.9966 59.1156 59.0652 56.0122 59.9302 43.2811V42.1363C59.9302 42.1363 53.532 49.888 44.3192 50.1501C35.1064 50.4122 9.85697 51.0329 9.85697 51.0329L9.44507 3.51562H9.45881Z" fill="url(#paint0_radial_338_16)" stroke="black" stroke-width="0.6" stroke-miterlimit="10"/>
<path d="M17.752 0.0429688H38.4431C38.4431 0.0429688 43.1799 0.925727 42.9191 5.76711C42.6582 10.6085 35.0243 16.6085 35.0243 16.6085V10.5257C35.0243 10.5257 35.3401 7.27055 32.8275 7.174H27.1296V36.5119H42.6857C46.4614 36.5119 49.7429 33.6016 49.9213 29.8223C49.9213 29.6292 49.9213 29.4223 49.9213 29.2016C49.9076 27.905 49.6605 26.774 49.3035 25.8223C48.2188 22.9119 45.3218 21.0774 42.2188 21.2154C38.6902 21.3809 32.9786 21.7257 29.903 22.4292C29.903 22.4292 41.4774 15.0637 45.7886 13.7947C47.6284 13.2568 49.8252 13.2706 51.4042 13.6154C52.9831 13.9602 60.5758 15.6981 59.9168 29.2981C59.244 42.8981 47.8207 43.574 45.8847 43.7395C43.9488 43.9188 17.7383 43.7395 17.7383 43.7395V0.0429688H17.752Z" fill="url(#paint1_radial_338_16)" stroke="black" stroke-width="0.6" stroke-miterlimit="10"/>
</g>
<defs>
<radialGradient id="paint0_radial_338_16" cx="0" cy="0" r="1" gradientUnits="userSpaceOnUse" gradientTransform="translate(29.9302 31.7363) scale(29.0526 29.1862)">
<stop stop-color="#E7AC60"/>
<stop offset="0.3" stop-color="#F1BC6A"/>
<stop offset="0.6" stop-color="#FFE6A7"/>
<stop offset="0.9" stop-color="#F6CD80"/>
<stop offset="1" stop-color="#AD7A3A"/>
</radialGradient>
<radialGradient id="paint1_radial_338_16" cx="0" cy="0" r="1" gradientUnits="userSpaceOnUse" gradientTransform="translate(38.8687 21.9188) scale(21.4462 21.5448)">
<stop stop-color="#E7AC60"/>
<stop offset="0.3" stop-color="#F1BC6A"/>
<stop offset="0.6" stop-color="#FFE6A7"/>
<stop offset="0.9" stop-color="#F6CD80"/>
<stop offset="1" stop-color="#AD7A3A"/>
</radialGradient>
<clipPath id="clip0_338_16">
<rect width="60" height="60" fill="white"/>
</clipPath>
</defs>
</svg>
